<?xml version="1.0" encoding="utf-8"?>
<!-- Generator: Adobe Illustrator 27.5.0, SVG Export Plug-In . SVG Version: 6.00 Build 0)  -->
<svg version="1.1" xmlns="http://www.w3.org/2000/svg" xmlns:xlink="http://www.w3.org/1999/xlink" x="0px" y="0px"
	 viewBox="0 0 500 500" style="enable-background:new 0 0 500 500;" xml:space="preserve">
<g id="BACKGROUND">
	
		<linearGradient id="XMLID_00000026141937545271921720000002007046967284291493_" gradientUnits="userSpaceOnUse" x1="250" y1="500" x2="250" y2="-9.094947e-13">
		<stop  offset="0.0054" style="stop-color:#D9D9D9"/>
		<stop  offset="0.2665" style="stop-color:#E7E7E7"/>
		<stop  offset="0.6906" style="stop-color:#F9F9F9"/>
		<stop  offset="1" style="stop-color:#FFFFFF"/>
	</linearGradient>
	<rect id="XMLID_9_" style="fill:url(#XMLID_00000026141937545271921720000002007046967284291493_);" width="500" height="500"/>
</g>
<g id="OBJECTS">
	<g id="XMLID_1_">
		<path id="XMLID_6_" style="fill:#3D3D3D;" d="M149.624,320.093V283.65c0-5.523,4.477-10,10-10h179.215c5.523,0,10,4.477,10,10
			v36.443h21.325c4.32,0,7.577-3.926,6.779-8.172l-6.654-35.384c-1.941-9.92-8.073-18.517-16.819-23.584l-44.576-25.819
			c-12.781-7.403,8.536-26.467,14.187-43.702c5.651-17.235-11.764-57.886-28.366-76.66c-15.951-18.039-23.964-26.788-43.035-27.447
			V79.28c-0.405,0-0.796,0.009-1.191,0.016c-0.396-0.007-0.787-0.016-1.192-0.016v0.045c-19.071,0.659-27.084,9.408-43.035,27.447
			c-16.601,18.774-34.016,59.424-28.365,76.66c5.651,17.235,26.968,36.299,14.187,43.702l-44.576,25.819
			c-8.747,5.066-14.878,13.664-16.819,23.584l-7.596,35.204c-0.927,4.296,2.347,8.352,6.742,8.352H149.624z M264.314,168.754
			c0.353-0.184,0.724-0.363,1.111-0.532c0.015-0.007,0.03-0.013,0.046-0.02c0.376-0.163,0.769-0.317,1.177-0.46
			c0.03-0.01,0.059-0.02,0.089-0.031c0.4-0.137,0.815-0.262,1.243-0.372c0.041-0.011,0.083-0.02,0.125-0.031
			c0.425-0.106,0.863-0.197,1.316-0.27c0.049-0.008,0.098-0.014,0.147-0.022c0.454-0.069,0.92-0.122,1.4-0.152
			c0.049-0.003,0.098-0.004,0.147-0.007c0.487-0.026,0.986-0.033,1.498-0.014c0.043,0.002,0.087,0.006,0.13,0.008
			c0.525,0.024,1.061,0.071,1.612,0.151c0.027,0.004,0.056,0.01,0.083,0.014c0.571,0.085,1.153,0.198,1.75,0.349
			c0,0-0.292,0.577-0.878,1.389c-1.93,2.67-7.089,7.908-15.859,3.706C259.45,172.46,261.198,170.385,264.314,168.754z
			 M226.539,167.017c0.028-0.004,0.056-0.01,0.083-0.014c0.551-0.079,1.087-0.126,1.612-0.151c0.043-0.002,0.087-0.006,0.13-0.008
			c0.512-0.02,1.011-0.013,1.498,0.014c0.049,0.003,0.099,0.004,0.147,0.007c0.48,0.031,0.946,0.083,1.4,0.152
			c0.049,0.007,0.098,0.014,0.147,0.022c0.452,0.073,0.891,0.165,1.315,0.27c0.042,0.01,0.083,0.02,0.125,0.031
			c0.429,0.11,0.844,0.235,1.243,0.372c0.03,0.01,0.059,0.02,0.089,0.031c0.408,0.142,0.801,0.296,1.177,0.46
			c0.015,0.007,0.03,0.013,0.045,0.02c0.387,0.17,0.758,0.348,1.111,0.532c3.117,1.631,4.864,3.706,4.864,3.706
			c-8.77,4.202-13.929-1.035-15.859-3.706c-0.586-0.811-0.878-1.389-0.878-1.389C225.386,167.215,225.968,167.102,226.539,167.017z
			 M234.337,185.007c11.789-4.323,11.165-8.618,16.151-8.618c4.98,0,4.362,4.295,16.151,8.618
			c5.417,1.986,12.746,1.506,17.008,0.095c-1.411,5.003-3.18,9.866-5.17,14.516c-2.949,6.889-8.416,12.466-15.338,15.338
			c-4.359,1.808-9.037,2.792-13.908,2.792c-0.078,0-0.155,0-0.233-0.001c-11.502-0.074-21.781-7.211-26.343-17.769
			c-2.056-4.758-3.884-9.743-5.332-14.877C221.585,186.512,228.917,186.994,234.337,185.007z"/>
		
			<text id="XMLID_2_" transform="matrix(1 0 0 1 159.3039 321.8897)" style="fill:#3D3D3D; font-family:'Montserrat-Medium'; font-size:51.4734px;">CYBER</text>
		
			<text id="XMLID_7_" transform="matrix(1 0 0 1 151.2276 414.4084)" style="fill:#3D3D3D; font-family:'Montserrat-Medium'; font-size:24px; letter-spacing:9;">COMPANY</text>
		
			<text id="XMLID_3_" transform="matrix(1 0 0 1 103.654 381.9143)" style="fill:#3D3D3D; font-family:'Montserrat-Bold'; font-size:69.0976px;">SECURE</text>
	</g>
</g>
</svg>
